<svg id="Layer_1" data-name="Layer 1" xmlns="http://www.w3.org/2000/svg" viewBox="0 0 219.39 245.9"><defs><style>.cls-1,.cls-2,.cls-4,.cls-6{fill:none;}.cls-1,.cls-2,.cls-3,.cls-4,.cls-6{stroke:#fff;}.cls-1,.cls-2,.cls-3,.cls-4{stroke-miterlimit:10;}.cls-1{stroke-width:2px;}.cls-2{stroke-width:4px;}.cls-3,.cls-5{fill:#fff;}.cls-3,.cls-4{stroke-width:3px;}.cls-6{font-size:5px;font-family:Posterama2001W01-Bold;font-weight:700;}.cls-7{letter-spacing:-0.01em;}.cls-8{letter-spacing:0.02em;}</style></defs><line class="cls-1" x1="108.95" y1="80.81" x2="108.95" y2="90.81"/><polyline class="cls-2" points="108.95 94.81 108.95 159.81 98.95 159.81"/><polyline class="cls-2" points="108.95 189.81 108.95 165.81 98.7 165.81 93.95 165.81 93.95 152.81"/><line class="cls-2" x1="87.95" y1="143.81" x2="98.95" y2="143.81"/><path class="cls-3" d="M138.58,95.59" transform="translate(-45.05 -34.19)"/><polyline class="cls-1" points="100.95 56.81 93.64 56.81 88.54 51.35"/><polyline class="cls-2" points="106.1 79.91 90.95 74.91 90.95 65.81 98.95 65.81"/><polyline class="cls-2" points="108.95 72.81 108.95 44.43 98.6 50.8 95.03 46.7"/><polyline class="cls-1" points="108.95 38.81 108.95 32.81 88.95 32.81"/><line class="cls-1" x1="117.95" y1="80.81" x2="117.95" y2="90.81"/><polyline class="cls-2" points="117.95 94.81 117.95 159.81 127.95 159.81"/><polyline class="cls-1" points="117.95 189.81 117.95 165.81 128.19 165.81 132.95 165.81 132.95 152.81"/><line class="cls-2" x1="137.95" y1="143.81" x2="127.95" y2="143.81"/><polyline class="cls-1" points="124.95 56.81 133.1 56.81 138.21 51.35"/><polyline class="cls-2" points="120.8 79.91 135.95 74.91 135.95 65.81 128.95 65.81"/><polyline class="cls-4" points="117.45 56.81 117.45 44.43 127.8 50.8 131.36 46.7"/><polyline class="cls-4" points="118.45 38.81 118.45 32.31 138.95 32.31"/><circle class="cls-2" cx="18.82" cy="31.98" r="16.82"/><circle class="cls-2" cx="40.5" cy="103.93" r="9.11"/><circle class="cls-2" cx="200.1" cy="107.57" r="9"/><circle class="cls-2" cx="24.39" cy="213.62" r="11.26"/><circle class="cls-2" cx="191.04" cy="28.85" r="15.58"/><circle class="cls-2" cx="175.95" cy="193.81" r="8"/><circle class="cls-2" cx="115.74" cy="212.15" r="5.05"/><circle class="cls-4" cx="89.84" cy="239.49" r="4.9"/><circle class="cls-3" cx="21.36" cy="9.69" r="1.21"/><circle class="cls-3" cx="29.72" cy="8.39" r="0.85"/><circle class="cls-3" cx="25.45" cy="2.37" r="0.62"/><path class="cls-5" d="M77.48,51a8.46,8.46,0,0,1,5.82-1.4c1.08.2,1.08,1.69.88,2.4-1.2,4.39-4.25,8-7.29,11.18-5,5-11.37,8.87-18.35,10A52.71,52.71,0,0,0,75.47,61.75a42.86,42.86,0,0,0,6.39-7.9,7.29,7.29,0,0,0,1.22-3.13c0-.11,0,0,0-.1a9.17,9.17,0,0,0-5.58.36Z" transform="translate(-45.05 -34.19)"/><path class="cls-5" d="M88.48,146.74c-2.85-1.42-3.68-5.65-.19-6.87a4.29,4.29,0,0,1,2.77.1c-4.51.34-5.18,3.47-2.58,6.77Z" transform="translate(-45.05 -34.19)"/><path class="cls-5" d="M85.55,129.93c-1.41,3-1.52,6.41.6,9,.43.62,1,1.17,1.48,1.76a6.57,6.57,0,0,1-2.08-10.76Z" transform="translate(-45.05 -34.19)"/><path class="cls-5" d="M83.15,125.17c7.77-1.75,16.84,2.5,16.06,11.49a18,18,0,0,1-.52,3.2,19.19,19.19,0,0,0-.44-6.3c-1.65-6.46-9.13-8.64-15.1-8.39Z" transform="translate(-45.05 -34.19)"/><circle class="cls-1" cx="14.06" cy="199.54" r="0.92"/><circle class="cls-1" cx="21.71" cy="194.97" r="0.9"/><circle class="cls-1" cx="9.21" cy="209.75" r="1.09"/><circle class="cls-1" cx="6.13" cy="202.32" r="0.85"/><circle class="cls-1" cx="39.38" cy="226.66" r="0.76"/><circle class="cls-1" cx="207.45" cy="13.19" r="0.82"/><circle class="cls-1" cx="196.07" cy="3.27" r="2.27"/><circle class="cls-1" cx="215.29" cy="38.67" r="3.11"/><circle class="cls-1" cx="212.98" cy="21.7" r="0.81"/><circle class="cls-1" cx="217.56" cy="18.7" r="0.83"/><circle class="cls-1" cx="186.56" cy="51.72" r="1.09"/><circle class="cls-1" cx="169.47" cy="20.21" r="0.68"/><circle class="cls-1" cx="209.73" cy="96.93" r="0.63"/><circle class="cls-1" cx="189.63" cy="118.66" r="0.57"/><circle class="cls-1" cx="177.45" cy="207.31" r="0.5"/><ellipse class="cls-4" cx="29.59" cy="93.05" rx="0.32" ry="0.16"/><circle class="cls-4" cx="23.2" cy="96.99" r="1.25"/><circle class="cls-4" cx="25.93" cy="102.62" r="0.44"/><circle class="cls-4" cx="28.54" cy="110.03" r="0.28"/><circle class="cls-1" cx="23.2" cy="107.24" r="0.24"/><circle class="cls-1" cx="167.45" cy="184.31" r="0.5"/><circle class="cls-4" cx="162.95" cy="201.81" r="1.5"/><text class="cls-6" transform="translate(71.94 195.87)"><tspan class="cls-7">Y</tspan><tspan x="3.29" y="0">OUNG BILLIONAIRES UNIVE</tspan><tspan class="cls-8" x="72.53" y="0">R</tspan><tspan x="76.05" y="0">SE</tspan></text></svg>